<?xml version="1.0" encoding="UTF-8" standalone="no"?>
<svg
   xmlns="http://www.w3.org/2000/svg"
   viewBox="0 0 637.46 637.79"
   version="1.1">

  <style type="text/css">
    <![CDATA[
      #shirt .light{ fill: #4fd1c5; }
      #shirt .dark{ fill: #06333f; }
      #background { fill: #fbd38d; }
    ]]>
  </style>

  <path
     d="M 0,0 H 637.46 V 637.46 H 0 Z"
     id="background"
     style="paint-order:markers fill stroke" />
  <g>
    <path
       style="fill:#dfb29a"
       d="m 163.9,462.46 65.2,-44.79 C 229.63,393.42 214,369.62 206.44,345.6 l -16.07,-45.54 -5.9,-48.42 -4.67,-20.56 31.78,-73.4 85.55,-30.84 69.18,23.84 27.58,51.41 11.69,28.05 -9.36,54.83 c -2.86,21.33 -2.62,43.55 -2.53,64.29 -0.51,13.4 0.7,25.48 6.28,38.88 l 7.94,17.76 31.79,15.9 34.59,111.71 -302.44,8.42 z" />
    <path
       d="m 230.09,420.65 c 6.5,22.44 35.51,29.03 56.3,34.33 23.38,5.95 71.46,1.13 98.83,-18.18 10.6,-7.48 24.03,-22.12 19.46,-33.69 -4.57,-11.6 -12.03,-34.88 -9.55,-36.49 L 372,370.36 c -50.67,63.58 -155.85,2.09 -141.91,50.29 z M 190.98,190.92 c 3.73,6.67 15.59,0.48 22.83,-1.95 10.97,-3.68 18.64,-14.18 29.38,-18.5 13,-5.22 27.35,-6.17 41.18,-8.44 16.73,-2.75 38.44,5.67 50.48,-6.27 6.43,-6.38 9.7,-20.28 3.56,-26.95 -23.82,-25.88 -74.4,-11.47 -105.4,5.15 -20.8,11.14 -53.56,36.37 -42.03,56.96 z m 24.34,50.86 c 1.98,3.06 7.3,1.08 10.91,0.66 5.71,-0.66 10.79,-4.57 16.53,-4.96 7.28,-0.48 15.82,3.67 21.63,3.45 16.56,-0.64 0.6,-2.77 0.84,-5.1 0.31,-2.92 -2.4,-5.83 -4.95,-7.27 -7.6,-4.27 -17.57,-3 -26.12,-1.32 -5.85,1.15 -12.14,3.23 -16.2,7.6 -1.68,1.82 -3.98,4.86 -2.64,6.94 z m 85.9,-4.67 c 1.12,2.6 5.62,1.64 8.42,1.17 3.36,-0.57 5.84,-3.69 9.11,-4.67 4.05,-1.22 8.55,-0.24 12.62,-1.4 4.46,-1.28 11.95,-1.4 12.55,-6 0.28,-2.19 -2.97,-3.59 -5.07,-4.29 -6.07,-2.02 -12.9,-0.14 -19.16,1.17 -3.99,0.83 -8.22,1.74 -11.46,4.2 -3.2,2.44 -8.6,6.13 -7,9.82 z m 75.08,-19.46 c -0.86,13.37 4.26,26.6 3.96,40 -0.38,16.91 -6.46,33.34 -7.27,50.24 -0.7,14.43 -7.36,32.36 2.09,43.28 3.8,4.38 12.61,7.02 17.08,3.32 21.3,-17.63 0.44,-55.32 -0.33,-82.96 -0.48,-17.1 1.37,-34.61 -2.65,-51.23 -1.7,-7.05 -1.7,-20.54 -8.92,-19.84 -5.85,0.58 -3.59,11.32 -3.97,17.2 z m -116.45,84.44 c 0,0 7.68,2.72 11.69,3.27 7.4,1.02 14.96,-0.28 22.44,0 4.21,0.16 8.4,0.98 12.62,0.94 2.5,-0.03 5.3,0.52 7.48,-0.7 a 9.09,9.09 0 0 0 4.2,-5.62 c 0.63,-2.61 -0.4,-5.45 -1.4,-7.94 -1.25,-3.13 -3.54,-5.75 -5.6,-8.42 -1.22,-1.57 -2.26,-5.43 -3.98,-4.44 -3.2,1.86 2.69,6.92 3.5,10.52 0.56,2.45 1.75,5.1 0.94,7.48 a 7.1,7.1 0 0 1 -4.2,4.2 c -3.64,1.26 -7.64,-1.86 -11.46,-1.4 -2.68,0.33 -4.9,2.45 -7.57,2.9 -3.27,0.55 -6.72,0.39 -9.96,-0.32 -2.73,-0.6 -7.71,-3.28 -7.71,-3.28 z"
       style="fill:#bf9c89" />
    <path
       style="fill:#8a654b"
       d="m 190.1,271.9 -13.04,-20.24 -1.11,-35.35 c 3.06,-35.7 12.99,-66.44 39.29,-84.86 23.5,-16.45 48.65,-29.59 73.66,-28.65 28.83,1.08 55.29,7.72 76.83,21.9 16.24,10.67 27.04,28.6 36.08,45.8 11.34,21.56 11.99,47.46 9.46,69.6 l -14.52,20.74 -10.24,-2.3 c -0.1,-11.78 0.14,-14.31 -3.49,-25.2 -11.7,-11.9 -17.44,-33.13 -26.64,-49.75 -8.6,-15.54 -25.14,-24.14 -42.02,-25.77 -19.55,-1.88 -38.78,2.18 -64.56,3.8 -16.72,1.05 -36.81,12.21 -41.71,28.18 -4.76,15.5 -14.75,35.2 -14.17,51.35 z" />
    <g style="fill:#8a654b">
      <path d="m 408.62,238.45 c -1.92,-0.03 -19.72,18.78 -22.1,20.08 -1.12,23.67 2.4,42.09 -2.56,62.25 -2.18,8.87 -7.4,21.99 -11.68,24.78 -11.18,16.62 -15.02,19.96 -25.02,27.11 -4.32,3.1 -8.7,6.57 -13.8,8.09 -28.3,8.36 -28.17,-19.79 -32.65,-30.97 -2.3,-5.74 -18.32,-4.01 -18.42,2.17 -0.25,14.6 -12.35,32.97 -26.42,32.95 -8.26,-0.01 -19.91,-4.88 -27.44,-11.3 -10.65,-9.1 -16.6,-22.95 -21.73,-36 -4.44,-11.25 -4.7,-23.74 -7.48,-35.52 -2.36,-9.97 -3.64,-18.9 -7.81,-29.72 -1.5,-3.86 -2.39,-9.64 -3.18,-12.58 -0.8,-0.63 -4,-1.47 -4.67,-0.7 0.64,4.36 -0.52,9.64 -0.21,14.45 5.44,29.45 7.03,60.18 12.6,88.15 4.24,21.34 20.68,35.35 36.88,54 9.58,11.01 20.52,15.74 36.88,19.7 12.86,3.1 32.9,-0.25 57.08,1.18 7.56,0.45 22.47,-5.36 32.46,-10.88 10.34,-5.7 20.8,-12.63 27.41,-22.4 8.15,-12.04 10.74,-27.26 13.1,-41.6 3.07,-18.76 -0.15,-38.06 1.16,-57.03 1.52,-22.08 5.67,-48.5 7.77,-65.94 0.02,-0.18 -0.04,-0.27 -0.17,-0.27 z" />
      <path d="m 239.08,335.99 c -7.78,0.93 10.01,-24.84 27.46,-25.44 10.37,-0.35 28.87,-1.46 38.92,-1.6 14.74,-0.18 39.53,10.63 36.64,22.08 -1.07,4.24 -9.7,-4.93 -19.82,-6.9 -10.13,-1.96 -22.24,-1.36 -33.6,-0.9 -15.34,0.62 -23.39,1.08 -31.76,4.05 -8.37,2.97 -17.07,8.62 -17.84,8.7 z" />
    </g>
    <g transform="matrix(2.64428,0,0,2.64428,55.34,33.87)">
      <path
         d="m 63.32,83.39 c -0.29,-2.38 3.32,-3.71 5.56,-4.53 2.14,-0.78 4.73,-1 6.83,-0.12 0.66,0.28 1.37,0.84 1.49,1.55 0.3,1.88 -0.9,4.08 -2.47,5.16 -1.64,1.14 -4,0.87 -5.96,0.52 -1.98,-0.36 -5.21,-0.59 -5.45,-2.58 z"
         style="fill:#ffffff" />
      <circle
         r="3.0999999"
         cy="82.07"
         cx="72.400002"
         style="fill:#51ddff;paint-order:markers fill stroke" />
      <circle
         r="1.5700001"
         cy="81.849998"
         cx="72.839996"
         style="paint-order:markers fill stroke" />
    </g>
    <g transform="matrix(2.64428,0,0,2.64428,55.34,33.87)">
      <path
         d="m 95.68,81.06 c -0.14,-1.74 2.14,-2.9 3.5,-3.5 1.71,-0.74 3.7,-0.66 5.57,-0.56 1.27,0.07 2.69,0.09 3.75,0.81 0.9,0.62 1.93,1.66 1.8,2.75 -0.18,1.63 -2.03,2.79 -3.55,3.38 -1.7,0.65 -3.68,0.3 -5.44,-0.13 -2.03,-0.5 -5.46,-0.67 -5.63,-2.75 z"
         style="fill:#ffffff" />
      <circle
         r="3.0999999"
         cy="80.610001"
         cx="103.69"
         style="fill:#51ddff;fill-opacity:0.98999999;paint-order:markers fill stroke" />
      <circle
         r="1.5700001"
         cy="80.370003"
         cx="104.21"
         style="paint-order:markers fill stroke" />
    </g>
    <path style="fill:#8a654b"
          d="m 213.1,244.36 c 7.28,-4.26 13.24,-11.68 21.51,-13.32 9.45,-1.88 19.98,0.2 28.51,4.67 2.88,1.5 4.1,8.84 6.78,7.01 5.66,-3.83 -2.2,-15.85 -8.41,-18.7 -9.75,-4.45 -23.6,-1.35 -31.55,-0.93 -9.1,0.48 -16.53,9.21 -21.5,16.83 -1.55,2.35 -4.34,6.45 -2.11,8.18 2.04,1.58 4.55,-2.44 6.78,-3.74 z m 87.89,-4.68 c 6.33,-4.82 8.64,-11.56 15.19,-10.98 6.02,0.53 12.06,-1.7 19.63,-1.29 5.47,0.3 8.09,-0.22 13.2,1.64 2.5,0.9 8.88,2.78 9.82,-0.35 1.28,-4.22 -6.64,-6.11 -10.75,-7.71 -6.83,-2.67 -14.51,-2.75 -21.85,-2.69 -6.75,0.06 -14.49,-1.02 -20.04,2.8 -5.61,3.86 -12.9,11.78 -9.88,17.88 0.7,1.42 2.89,2.07 4.68,0.7 z" />
    <path
       d="m 398.27,266.08 c 1.9,-6.9 8.93,-19.5 8.93,-19.5 6.13,-6.15 9.02,-4.5 12.56,-2.15 8.02,5.31 8.3,18.58 6.61,28.1 -1.5,8.5 -4.56,11.35 -6.45,17.18 -2.23,6.9 -0.2,16.71 -4.46,21.32 -3.07,3.32 -10.95,3.3 -13.55,-0.66 -3.81,-5.82 -0.58,-12.28 -4.96,-31.9 -0.9,-4.05 0.22,-8.39 1.32,-12.4 z"
       style="fill:#dfb29a" />
    <path
       d="m 405.46,261.89 c 0,0 4.62,-11.05 9.58,-11.45 2.64,-0.22 4.78,2.83 6.02,5.16 2.05,3.88 2.09,8.73 1.46,13.07 -0.7,4.89 -4.1,9 -5.72,13.67 -2.83,8.17 1.72,24.32 -6.9,25 -3.37,0.27 -4.2,-9.23 -4.2,-9.23"
       style="opacity:0.5;fill:none;stroke:#5c443f;stroke-width:2.64427996" />
    <path
       d="m 403.15,283.32 c 1.97,-0.65 2.94,-4.1 4.28,-3.12 2.52,1.83 3.8,8.8 1.78,11.26 -0.92,1.12 -4.21,-1.07 -4.21,-1.07"
       style="opacity:0.5;fill:none;stroke:#5c443f;stroke-width:2.64427996" />
    <g>
      <path
         d="m 187.23,268.39 c -0.71,-5.5 2.28,-12.6 -1.6,-16.58 -3.07,-3.15 -9.56,-4.2 -13.11,-1.6 -4.65,3.42 -3.34,11.26 -3.14,17.02 0.28,8.19 1.61,16.96 6.11,23.8 3.66,5.56 6.43,8.98 8.6,18.84 1,4.6 4.02,12.4 8.6,11.24 4.75,-1.2 2.77,-10.21 2.3,-14.54 -1.24,-11.73 -3.01,-10.3 -4.13,-15.54 a 280.08,280.08 0 0 1 -3.63,-22.64 z"
         style="fill:#dfb29a" />
      <path
         d="m 184.27,264.27 c 0,0 -1.8,-10.44 -5.55,-9.9 -6.98,0.98 -5.34,13.56 -4.82,20.6 0.35,4.73 3.32,8.9 5.26,13.23 1.26,2.84 3.07,5.44 4.16,8.35 4.74,12.69 4.4,10.54 7.6,17.56"
         style="opacity:0.5;fill:none;stroke:#5c443f;stroke-width:2.64427996" />
      <path
         d="m 188.47,290.43 c -2.04,0.4 -1.8,2.05 -3.01,0.92 -2.27,-2.14 -4.29,-9.22 -1.98,-11.4 1.05,-0.99 2.4,0.2 2.4,0.2"
         style="opacity:0.5;fill:none;stroke:#5c443f;stroke-width:2.64427996" />
    </g>
    <path
       d="m 261.6,278.25 c -0.9,1.94 -17.1,16.41 -3.85,23.84 1.5,0.84 10.52,0.5 8.18,-0.94 -13.32,-8.16 12.82,-7.37 8.76,-1.52 -2.08,3 6.23,4.5 12.98,2.34 0.72,-0.23 -4.52,-4.8 4.9,-6.78 8.68,-1.82 8.36,5.08 5.85,5.26 -2.12,0.16 9.7,2.08 12.15,-1.17 4.56,-6.03 -3.04,-16.06 -4.09,-22.32"
       style="fill:none;stroke:#9a7869;stroke-width:2.65548396" />
    <path
       d="m 266.69,302.96 c 4.29,-0.45 6.48,-0.14 9.23,0.53 l -1.05,-6.2 -6.43,-1.92 -5.37,0.88 -0.06,3.68 z m 21.82,-0.08 c 2.85,-1.44 7.64,-1.31 12.21,-0.65 l -2.57,-6.54 -4.2,-0.7 -5.61,2.04 -1.52,2.52 z"
       style="fill:#9a7869" />
    <path
       d="m 247.17,342.25 c 7.22,-4.37 16.12,-7.65 24.78,-9.35 4.92,-0.96 4.67,0.32 17.53,1.64 6.32,0.64 12.58,-2.65 18.93,-2.34 7.82,0.38 13.53,1.25 22.9,5.14"
       style="fill:none;stroke:#9a7869;stroke-width:2.65548396" />
  </g>
  <g id="shirt">
    <path class="light"
       d="m 55.87,512.56 a 485.4,485.4 0 0 1 17.18,-11.35 c 6,-3.8 10.62,-6.43 17.09,-10.24 6.46,-3.81 21.08,-8.57 27.91,-12.4 6.83,-3.83 12.18,-9.77 19.28,-13.6 7.1,-3.85 14.06,-5.59 21.33,-9.43 7.26,-3.85 10.14,-7.93 17.47,-11.78 7.33,-3.85 15.8,-6.62 23.13,-10.38 7.43,-3.8 16.22,-11.39 19.97,-11.83 0.92,-0.11 2.86,0.7 2.86,0.7 0,0 -15.39,15.85 -11.57,31.3 4.84,19.53 33.36,37.32 53.47,39.31 36.55,3.61 72.1,1.76 103.9,-13.35 20.66,-9.82 53.22,-33.4 56.67,-54.04 1.39,-8.27 -12.7,-18.26 -12.7,-18.26 0,0 1.46,-1.27 2.27,-1.06 5.75,1.5 15.7,9.31 26.21,12.85 4.99,1.68 9.44,4.68 14.37,6.51 5.37,2 11.26,2.51 16.47,4.88 4.75,2.16 8.58,5.97 13.2,8.38 4.98,2.6 10.56,3.93 15.54,6.52 4.28,2.22 7.92,5.58 12.27,7.68 4.57,2.21 9.8,2.88 14.36,5.1 8.21,4 15.32,9.96 23.14,14.67 8.05,4.85 15.9,10.14 24.46,14 8.27,3.72 8.73,3.48 16.35,8.4 3.83,2.48 11.4,5.97 16,10.34 4.27,4.08 7.37,9.29 10.34,14.4 2.2,3.78 3.33,7.86 5.48,11.95 1.67,3.2 5.13,6.34 6.08,9.83 1.09,3.96 1.94,8.35 2.74,12.56 0.71,3.77 1.2,7.57 1.83,11.35 0.58,3.48 1.44,6.93 1.82,10.44 2.22,20.38 2.67,61.45 2.67,61.45 -212.25,0.75 -637.46,0 -637.46,0 0,0 0.43,-66.85 3.05,-74.19 3.98,-11.14 11.19,-21.27 19.63,-29.56 9.37,-9.19 27.55,-17.24 33.2,-21.15 z" />
    <path
       class="dark"
       d="m 208.24,430.2 c -3.6,6.9 -9.9,13.06 -10.52,20.8 -0.63,7.79 2.6,15.93 7.07,22.33 8.29,11.89 20.92,21.22 34.36,26.64 19.29,7.78 41.24,6.56 62.03,6.65 20.32,0.1 41.52,0.85 60.67,-5.95 17.96,-6.37 33.96,-18.32 47.68,-31.55 11.18,-10.77 25.3,-22.45 27.11,-37.86 0.7,-5.94 -1.75,-13.36 -6.77,-16.6 -5.67,-3.65 -14.98,-10.61 -18.54,-6.86 4.2,3.76 9.99,6.53 8.02,14.81 -0.15,9.32 -5.6,18.3 -11.6,25.46 -9.55,11.42 -22.62,21.15 -36.55,27.83 -22.68,10.87 -48.71,14.86 -73.86,15.42 -20.36,0.46 -42.54,0.16 -60.3,-9.81 -10.16,-5.7 -18.46,-17.07 -22.51,-25.8 -3.24,-6.99 -0.34,-12.93 2.36,-18.55 3.01,-6.29 7.77,-11.1 5.2,-14.9 -7.5,-1.4 -11.2,4.46 -13.85,7.95 z" />
    <path
       class="dark"
       d="m 184.66,533.2 c -6.51,0.24 -12.45,2.39 -17.27,7.02 -16.16,15.57 28.26,41.29 23.28,63.17 a 24.76,24.76 0 0 1 -4.33,9.14 c 15.77,5.2 31.3,13.29 43.7,24.93 h 45.1 c 0.3,-22.94 -10.42,-44.17 -22.97,-62.33 -13.58,-19.64 -44.25,-42.84 -67.51,-41.94 z m 1.68,79.33 c -57.92,-19.12 -118.8,0.48 -38.29,24.44 15.5,-6.8 30.73,-14.13 38.29,-24.44 z m -38.29,24.44 -1.12,0.5 h 2.82 z M 309.57,549.7 c -30.1,0.4 -31.45,7.54 38.17,22.94 25.5,3.48 32.8,13.79 27.69,27.08 a 210.75,210.75 0 0 1 50.76,10.15 c 12.71,-17.77 24.24,-30 34.59,-37.89 -46.46,-14.56 -117.17,-22.74 -151.2,-22.28 z m 151.2,22.28 c 22,6.9 38.64,15.22 43.22,24.76 45.64,94.97 33.46,-83.2 -43.21,-24.76 z m -34.58,37.89 a 403.96,403.96 0 0 0 -17.97,27.6 h 71.04 c -14.22,-11.52 -32.92,-20.97 -53.07,-27.6 z m -50.76,-10.15 c -33.77,-2.33 -64.89,4.86 -80.04,25.28 -3.1,4.17 4.27,8.3 13.93,12.46 h 29.98 c 18.63,-13.17 31.8,-26.52 36.13,-37.74 z" />
  </g>
  <path d="m 342.17,223.99 c -8,-0.04 -17.98,0.3 -26.75,1.73 -10.5,1.7 -22.5,2.36 -26.76,5.95 -3.99,3.36 -13.9,3.52 -20.2,1.14 -6.88,-2.59 -24,-2.1 -29.92,-1.93 -32.73,0.92 -47.65,9.44 -49.19,10.99 l -12.39,7.06 0.1,2.73 c 0,0 14.65,-3.26 15.07,-2.14 1.46,3.84 4.73,14.8 6.4,18.7 1.65,3.9 3.48,7.47 5.4,10.05 6.24,8.34 46.9,5.22 51.65,2.6 11.68,-6.4 15.06,-33.13 18.09,-35.19 2,-1.37 11.93,-1.8 14.83,-0.32 2.39,1.21 6.3,23.42 20.68,30.8 8.71,4.46 47.74,-0.25 51.82,-6.2 6.4,-9.35 4.81,-20.48 7.35,-30.69 0.4,-1.62 1.1,-3.4 1.25,-4.86 0.15,-1.45 36.7,10.79 38.04,11.3 1.1,0.43 1.75,3.03 2.3,2.38 0.7,-0.8 0.44,-4.18 0,-4.55 -1.48,-1.28 -41.84,-18.45 -41.84,-18.45 0,0 -12.68,-1.03 -25.93,-1.1 z m -1.52,2.93 c 4.94,-0.05 9.64,0.25 13.18,1 5.77,1.24 7.43,4.45 9,10.19 1.56,5.74 0.56,14.42 -0.53,19.79 -1.72,8.56 -6.18,11.95 -12.18,13.52 a 128.04,128.04 0 0 1 -22.68,3.92 c -7.32,0.6 -15.74,-0.9 -21.14,-5.7 -5.4,-4.8 -9.5,-12.71 -12.1,-19.88 -2.79,-7.86 -1.53,-16 7.98,-18.43 6.87,-1.1 14.94,-2.04 23.88,-3.33 4.47,-0.64 9.65,-1.03 14.59,-1.08 z m -104.12,7.47 c 3.16,-0.04 6.39,0 9.77,0.05 6.95,0.1 12.42,-0.96 19.7,4.07 5.55,3.83 1.72,14.1 -0.32,20.7 -2.32,7.52 -5.48,17.45 -13.03,19.71 -10.84,3.24 -25.4,2.4 -40.73,0.5 -8.85,-1.11 -11.97,-15.93 -13.04,-24.78 -0.88,-7.33 2.69,-14.28 9.78,-16.45 9.69,-2.97 18.42,-3.7 27.87,-3.8 z" />
</svg>
